<svg xmlns="http://www.w3.org/2000/svg" viewBox="0 0 64 64" role="img" aria-label="ilovemitochondria">
  <rect width="64" height="64" rx="14" fill="#17171e"/>
  <!-- mitochondrion capsule -->
  <rect x="10" y="20" width="44" height="24" rx="12" fill="#0e9488"/>
  <rect x="15" y="24" width="34" height="16" rx="8" fill="#f5a524"/>
  <g fill="none" stroke="#e5623a" stroke-width="3" stroke-linecap="round">
    <path d="M22 25 C 19 32, 27 34, 23 40"/>
    <path d="M32 25 C 29 32, 37 34, 33 40"/>
    <path d="M42 25 C 39 32, 47 34, 43 40"/>
  </g>
  <!-- heart -->
  <path d="M32 54 C 24 47, 20 43, 24 39 C 27 36, 31 39, 32 41 C 33 39, 37 36, 40 39 C 44 43, 40 47, 32 54 Z" fill="#f0603a" stroke="#17171e" stroke-width="1.5"/>
</svg>
